<?xml version="1.0" encoding="UTF-8" standalone="no"?>
<!-- Created with Inkscape (http://www.inkscape.org/) -->

<svg
   width="67.101448mm"
   height="21.111311mm"
   viewBox="0 0 67.101448 21.111311"
   version="1.1"
   id="svg1"
   inkscape:version="1.4 (e7c3feb100, 2024-10-09)"
   sodipodi:docname="stealthysmile.svg"
   xmlns:inkscape="http://www.inkscape.org/namespaces/inkscape"
   xmlns:sodipodi="http://sodipodi.sourceforge.net/DTD/sodipodi-0.dtd"
   xmlns="http://www.w3.org/2000/svg"
   xmlns:svg="http://www.w3.org/2000/svg"
   xmlns:rdf="http://www.w3.org/1999/02/22-rdf-syntax-ns#"
   xmlns:cc="http://creativecommons.org/ns#"
   xmlns:dc="http://purl.org/dc/elements/1.1/">
   <style>
      path {
         fill: white;
      }
      
      @media (prefers-color-scheme:dark) {
         path {
            fill: white;
         }
      }
   </style>
  <title
     id="title1">Stealthy smile</title>
  <sodipodi:namedview
     id="namedview1"
     pagecolor="#ffffff"
     bordercolor="#cccccc"
     borderopacity="1"
     inkscape:showpageshadow="false"
     inkscape:pageopacity="1"
     inkscape:pagecheckerboard="false"
     inkscape:deskcolor="#d1d1d1"
     inkscape:document-units="px"
     inkscape:zoom="2.5953041"
     inkscape:cx="179.36241"
     inkscape:cy="60.68653"
     inkscape:window-width="1280"
     inkscape:window-height="766"
     inkscape:window-x="0"
     inkscape:window-y="0"
     inkscape:window-maximized="1"
     inkscape:current-layer="layer1"
     showborder="true"
     borderlayer="false"
     inkscape:antialias-rendering="true"
     inkscape:export-bgcolor="#ffffff00">
    <inkscape:page
       x="0"
       y="0"
       width="67.101448"
       height="21.111311"
       id="page2"
       margin="0"
       bleed="0" />
  </sodipodi:namedview>
  <defs
     id="defs1" />
  <g
     inkscape:label="Layer 1"
     inkscape:groupmode="layer"
     id="layer1"
     transform="translate(-126.20625,-59.795831)">
    <path
       style="stroke-width:3.96875;stroke-linecap:round;stroke-linejoin:round;paint-order:fill markers stroke"
       d="m 138.27434,72.531495 c 0,0 -1.662,-2.561116 -4.52282,1.307806 -2.86082,3.86892 -4.3321,3.678198 -5.53092,2.779083 -1.19882,-0.899115 -3.29676,-2.452132 -0.95361,-4.577315 2.34315,-2.125181 9.50883,-8.55522 10.92562,-9.399842 1.41678,-0.844624 3.6237,-3.078789 5.42193,-1.362297 1.79823,1.716492 0.95361,3.487478 0.95361,3.487478 0,0 -0.81738,1.934462 -2.34315,2.670101 -1.52577,0.73564 2.80964,4.764448 2.80964,4.764448 0,0 4.03006,2.226868 6.49581,1.518475 2.46576,-0.708395 2.27407,-0.969968 3.54101,-0.738378 1.26693,0.23159 5.27208,1.416788 8.14652,1.348674 2.87445,-0.06811 5.73527,0.02724 10.01288,-1.525773 4.27761,-1.553017 4.41384,-0.463179 6.10309,-2.016199 1.68925,-1.553017 3.70545,-3.324 2.47938,-4.114133 -1.22607,-0.790131 -4.41384,-1.008097 -3.81443,-4.413837 0.59941,-3.405741 3.6782,-2.288659 3.6782,-2.288659 0,0 2.99705,1.634754 4.6863,2.234165 1.68924,0.599411 6.59351,0.844621 6.89321,3.351247 0.29971,2.506625 -0.76288,3.541972 -2.04344,3.841676 -1.28056,0.299706 -2.42489,-0.544918 -2.6701,0.02725 -0.24521,0.572165 -4.78166,6.71612 -7.8332,7.751467 -3.05155,1.035343 -10.5578,2.81995 -11.34793,3.201394 -0.79013,0.381442 -6.32105,0.817378 -8.47348,0.27246 -2.15243,-0.54492 -5.6944,-1.226068 -9.45434,-0.54492 -3.75993,0.681149 -8.74594,-2.097936 -10.51692,-4.332102 -1.77099,-2.234165 -2.64286,-3.242265 -2.64286,-3.242265 z"
       id="path1"
       inkscape:label="path1"
       sodipodi:nodetypes="cssssscscssssssscsssssssssc" />
  </g>
  <metadata
     id="metadata1">
    <rdf:RDF>
      <cc:Work
         rdf:about="">
        <dc:title>Stealthy smile</dc:title>
        <dc:creator>
          <cc:Agent>
            <dc:title>Joyal V Poulose</dc:title>
          </cc:Agent>
        </dc:creator>
        <dc:language>English</dc:language>
        <cc:license
           rdf:resource="http://creativecommons.org/licenses/by/4.0/" />
      </cc:Work>
      <cc:License
         rdf:about="http://creativecommons.org/licenses/by/4.0/">
        <cc:permits
           rdf:resource="http://creativecommons.org/ns#Reproduction" />
        <cc:permits
           rdf:resource="http://creativecommons.org/ns#Distribution" />
        <cc:requires
           rdf:resource="http://creativecommons.org/ns#Notice" />
        <cc:requires
           rdf:resource="http://creativecommons.org/ns#Attribution" />
        <cc:permits
           rdf:resource="http://creativecommons.org/ns#DerivativeWorks" />
      </cc:License>
    </rdf:RDF>
  </metadata>
</svg>
